{"title":"Surrogates (2009) TS XviD-MAX","uid":5104756,"size":849920097,"categoryP":"video","categoryS":"movies","magnet":"?xt=urn:btih:9fca338f724154b5389d0e597831007b0b6d738a&amp;dn=Surrogates+%282009%29+TS+XviD-MAX&amp;tr=udp%3A%2F%2Ftracker.openbittorrent.com%3A80&amp;tr=udp%3A%2F%2Fopen.demonii.com%3A1337&amp;tr=udp%3A%2F%2Ftracker.coppersurfer.tk%3A6969&amp;tr=udp%3A%2F%2Fexodus.desync.com%3A6969","seeders":1,"leechers":0,"uploader":"extremezone","files":-1,"time":1254273716,"description":"Surrogates (2009) R5 DVDRip XviD-MAX (BEST QUALITY) &lt;a href=&quot;\nhttp://torrents.thepiratebay.se/5136374/Surrogates_(2009)_DVDRip_XviD-MAX.5136374.TPB.torrent&quot; rel=&quot;nofollow&quot; target=&quot;_NEW&quot;&gt;\nhttp://torrents.thepiratebay.se/5136374/Surrogates_(2009)_DVDRip_XviD-MAX.5136374.TPB.torrent&lt;/a&gt;\n\nSurrogates (2009) TS XviD-MAX\n\nFormat                           : AVI\nFormat/Info                      : Audio Video Interleave\nFile size                        : 810 MiB\nDuration                         : 1h 24mn\nOverall bit rate                 : 1 341 Kbps\nWriting application              : VirtualDubMod 1.5.10.2 (build 2542/release)\nWriting library                  : VirtualDubMod build 2542/release\nOriginal source form             : MAX TORRENTZ\nCopyright                        : SIGISMUNT\n\nVideo\nFormat                           : xvid\nCodec ID                         : xvid\nDuration                         : 1h 24mn\nBit rate                         : 1 200 Kbps\nWidth                            : 704 pixels\nHeight                           : 366 pixels\nDisplay aspect ratio             : 1.923\nFrame rate                       : 23.976 fps\nResolution                       : 24 bits\nBits/(Pixel*Frame)               : 0.194\nStream size                      : 725 MiB (90%)\n\nAudio\nID                               : 1\nFormat                           : MPEG Audio\nFormat version                   : Version 1\nFormat profile                   : Layer 3\nCodec ID                         : 55\nCodec ID/Hint                    : MP3\nDuration                         : 1h 24mn\nBit rate mode                    : Constant\nBit rate                         : 128 Kbps\nChannel(s)                       : 2 channels\nSampling rate                    : 48.0 KHz\nResolution                       : 16 bits\nStream size                      : 77.3 MiB (10%)\nAlignment                        : Aligned on interleaves\nInterleave, duration             : 24 ms (0.58 video frame)\nInterleave, preload duration     : 24 ms\n\nScreens: &lt;a href=&quot;\nhttp://www.postimg.com/image/7000/6736.jpg&quot; rel=&quot;nofollow&quot; target=&quot;_NEW&quot;&gt;\nhttp://www.postimg.com/image/7000/6736.jpg&lt;/a&gt; &lt;a href=&quot;\nhttp://www.postimg.com/image/7000/6737.jpg&quot; rel=&quot;nofollow&quot; target=&quot;_NEW&quot;&gt;\nhttp://www.postimg.com/image/7000/6737.jpg&lt;/a&gt; &lt;a href=&quot;\nhttp://www.postimg.com/image/7000/6738.jpg&quot; rel=&quot;nofollow&quot; target=&quot;_NEW&quot;&gt;\nhttp://www.postimg.com/image/7000/6738.jpg&lt;/a&gt; &lt;a href=&quot;\nhttp://www.postimg.com/image/7000/6739.jpg&quot; rel=&quot;nofollow&quot; target=&quot;_NEW&quot;&gt;\nhttp://www.postimg.com/image/7000/6739.jpg&lt;/a&gt; &lt;a href=&quot;\nhttp://www.postimg.com/image/7000/6740.jpg&quot; rel=&quot;nofollow&quot; target=&quot;_NEW&quot;&gt;\nhttp://www.postimg.com/image/7000/6740.jpg&lt;/a&gt;\n\nScreenCaps: &lt;a href=&quot;\nhttp://www.postimg.com/image/7000/6741.jpg&quot; rel=&quot;nofollow&quot; target=&quot;_NEW&quot;&gt;\nhttp://www.postimg.com/image/7000/6741.jpg&lt;/a&gt;\n\n\n","torrent":{"xt":"urn:btih:9fca338f724154b5389d0e597831007b0b6d738a","amp;dn":"Surrogates+%282009%29+TS+XviD-MAX","amp;tr":["udp%3A%2F%2Ftracker.openbittorrent.com%3A80","udp%3A%2F%2Fopen.demonii.com%3A1337","udp%3A%2F%2Ftracker.coppersurfer.tk%3A6969","udp%3A%2F%2Fexodus.desync.com%3A6969"],"infoHash":"9fca338f724154b5389d0e597831007b0b6d738a","infoHashBuffer":{"type":"Buffer","data":[159,202,51,143,114,65,84,181,56,157,14,89,120,49,0,123,11,109,115,138]},"announce":[],"urlList":[]}}